<svg width="591" height="248" viewBox="0 0 591 248" fill="none" xmlns="http://www.w3.org/2000/svg">
<g clip-path="url(#clip0_3555_2259)">
<mask id="path-1-inside-1_3555_2259" fill="white">
<path d="M0 0H591V248H0V0Z"/>
</mask>
<path d="M0 248.5L20.7505 222.377C42.632 194.829 77.4563 180.739 112.353 185.194V185.194C149.77 189.971 186.842 173.323 208.01 142.103V142.103C229.429 110.515 266.948 93.858 304.743 99.1577L314.894 100.581C353.947 106.057 392.783 89.234 415.5 57V57" stroke="#6674CC" stroke-width="4" stroke-linecap="round"/>
<path d="M-12 257.5L11.1033 241.356C22.9624 233.068 37.4279 229.371 51.809 230.952L52.8084 231.061C67.0771 232.629 81.4129 228.767 92.9622 220.242V220.242C108.019 209.128 127.566 206.097 145.282 212.128L157.437 216.266C175.823 222.525 196.169 217.725 209.819 203.909V203.909C221.517 192.068 238.284 186.727 254.676 189.619L264.352 191.327C278.972 193.907 293.852 188.443 303.328 177.016V177.016C314.516 163.525 332.998 158.562 349.439 164.635L354.134 166.369C368.796 171.785 385.173 169.783 398.098 160.993L410.3 152.696C421.262 145.242 434.845 142.723 447.75 145.75V145.75L468 150.5" stroke="url(#paint0_linear_3555_2259)" stroke-width="4" stroke-linecap="round"/>
<rect x="389" y="28" width="52" height="52" rx="26" fill="#6674CC"/>
<mask id="mask0_3555_2259" style="mask-type:luminance" maskUnits="userSpaceOnUse" x="396" y="37" width="38" height="34">
<path d="M413.079 38.159L396.85 52.1477V56.4751L412.748 70.176V66.4017L412.775 66.3731L412.748 66.3446V62.6703C411.189 62.2471 409.71 61.5756 408.37 60.6821C407.55 60.1591 406.847 59.476 406.304 58.6749C405.761 57.8739 405.39 56.9717 405.214 56.024C405.005 54.9369 404.96 53.8254 405.079 52.7253C405.214 51.4384 405.501 50.1716 405.936 48.9511C406.021 49.1246 406.71 49.8166 407.557 50.5841C408.948 51.8537 410.759 53.3377 410.991 53.1336C410.261 51.8012 409.785 50.3484 409.585 48.847C409.395 47.5205 409.452 46.1709 409.753 44.8645C409.754 44.8619 409.755 44.8591 409.755 44.8563C409.755 44.8535 409.754 44.8507 409.753 44.8482C410.111 43.5035 410.621 42.2027 411.272 40.9698C411.386 40.7452 411.504 40.5228 411.634 40.3003C412.051 39.546 412.535 38.8295 413.079 38.159ZM416.536 37.8242C416.513 37.9406 416.496 38.059 416.474 38.1753C416.289 39.2311 416.199 40.3006 416.203 41.3719C416.203 41.9577 416.248 42.513 416.304 43.0478C416.416 43.9926 416.624 44.924 416.925 45.828C418.146 49.4246 420.506 51.074 420.787 50.978C420.787 50.978 420.868 50.2432 420.936 49.2858C421.031 48.104 421.116 46.5914 421.042 45.6994C422.375 46.3464 424.825 49.4308 425.181 52.9458C425.289 53.9356 425.205 54.9367 424.933 55.8954C424.215 58.3796 422.077 60.8128 417.457 62.5233V70.0025L433.15 56.4751V52.1477L416.536 37.8242Z" fill="white"/>
</mask>
<g mask="url(#mask0_3555_2259)">
<path d="M433.15 37.8242H396.85V70.176H433.15V37.8242Z" fill="white"/>
</g>
<path d="M392.284 101.239C389.543 101.239 387.834 99.2568 387.834 96.0781V96.0645C387.834 92.8789 389.536 90.8965 392.277 90.8965C394.451 90.8965 396.119 92.2705 396.379 94.2324L396.372 94.2666H394.854V94.2461C394.567 93.0361 393.576 92.25 392.277 92.25C390.507 92.25 389.399 93.7197 389.399 96.0645V96.0781C389.399 98.416 390.507 99.8857 392.284 99.8857C393.59 99.8857 394.567 99.1885 394.848 98.0742L394.861 98.0469H396.379V98.0879C396.092 99.9814 394.485 101.239 392.284 101.239ZM401.369 101.144C399.188 101.144 397.855 99.6875 397.855 97.2949V97.2812C397.855 94.8955 399.195 93.4326 401.369 93.4326C403.536 93.4326 404.876 94.8887 404.876 97.2812V97.2949C404.876 99.6875 403.543 101.144 401.369 101.144ZM401.369 99.9062C402.641 99.9062 403.365 98.9355 403.365 97.2949V97.2812C403.365 95.6338 402.641 94.6699 401.369 94.6699C400.091 94.6699 399.373 95.6338 399.373 97.2812V97.2949C399.373 98.9424 400.091 99.9062 401.369 99.9062ZM409.354 101.123C407.487 101.123 406.277 99.626 406.277 97.2949V97.2812C406.277 94.9297 407.467 93.4463 409.354 93.4463C410.372 93.4463 411.24 93.9521 411.637 94.752H411.753V90.6641H413.229V101H411.753V99.8311H411.637C411.206 100.645 410.393 101.123 409.354 101.123ZM409.777 99.8584C411.015 99.8584 411.773 98.8809 411.773 97.2949V97.2812C411.773 95.6953 411.008 94.7178 409.777 94.7178C408.533 94.7178 407.788 95.6885 407.788 97.2812V97.2949C407.788 98.8877 408.533 99.8584 409.777 99.8584ZM418.555 101.144C416.381 101.144 415.068 99.6602 415.068 97.3086V97.3018C415.068 94.9844 416.408 93.4326 418.479 93.4326C420.551 93.4326 421.822 94.9297 421.822 97.1582V97.6777H416.559C416.586 99.0996 417.365 99.9268 418.589 99.9268C419.539 99.9268 420.106 99.4551 420.284 99.0723L420.312 99.0176L421.74 99.0107L421.727 99.0723C421.48 100.05 420.455 101.144 418.555 101.144ZM418.486 94.6494C417.475 94.6494 416.709 95.3398 416.579 96.6182H420.353C420.236 95.292 419.491 94.6494 418.486 94.6494ZM423.757 101V91.1357H425.288V95.3057H430.354V91.1357H431.878V101H430.354V96.6318H425.288V101H423.757ZM437.299 101.144C435.125 101.144 433.812 99.6602 433.812 97.3086V97.3018C433.812 94.9844 435.152 93.4326 437.224 93.4326C439.295 93.4326 440.566 94.9297 440.566 97.1582V97.6777H435.303C435.33 99.0996 436.109 99.9268 437.333 99.9268C438.283 99.9268 438.851 99.4551 439.028 99.0723L439.056 99.0176L440.484 99.0107L440.471 99.0723C440.225 100.05 439.199 101.144 437.299 101.144ZM437.23 94.6494C436.219 94.6494 435.453 95.3398 435.323 96.6182H439.097C438.98 95.292 438.235 94.6494 437.23 94.6494ZM442.398 101V90.6641H443.882V101H442.398ZM446.09 103.475V93.5762H447.573V94.7451H447.683C448.113 93.9316 448.927 93.4463 449.966 93.4463C451.839 93.4463 453.042 94.9434 453.042 97.2812V97.2949C453.042 99.6465 451.853 101.123 449.966 101.123C448.947 101.123 448.079 100.624 447.683 99.8242H447.573V103.475H446.09ZM449.549 99.8584C450.786 99.8584 451.531 98.8877 451.531 97.2949V97.2812C451.531 95.6816 450.786 94.7178 449.549 94.7178C448.312 94.7178 447.546 95.6953 447.546 97.2812V97.2949C447.546 98.8809 448.312 99.8584 449.549 99.8584Z" fill="white"/>
<path d="M437.441 167.239C434.57 167.239 432.834 165.236 432.834 162.071V162.058C432.834 158.886 434.611 156.896 437.441 156.896C440.278 156.896 442.042 158.893 442.042 162.058V162.071C442.042 165.229 440.292 167.239 437.441 167.239ZM437.441 165.886C439.314 165.886 440.477 164.382 440.477 162.071V162.058C440.477 159.727 439.308 158.25 437.441 158.25C435.575 158.25 434.399 159.727 434.399 162.058V162.071C434.399 164.382 435.541 165.886 437.441 165.886ZM446.752 167.048C445.118 167.048 444.448 166.474 444.448 165.045V160.745H443.286V159.576H444.448V157.703H445.959V159.576H447.552V160.745H445.959V164.689C445.959 165.489 446.26 165.817 446.991 165.817C447.217 165.817 447.347 165.811 447.552 165.79V166.973C447.312 167.014 447.039 167.048 446.752 167.048ZM449.35 167V156.664H450.833V160.704H450.942C451.305 159.911 452.016 159.433 453.096 159.433C454.757 159.433 455.673 160.424 455.673 162.194V167H454.196V162.543C454.196 161.312 453.684 160.704 452.597 160.704C451.51 160.704 450.833 161.449 450.833 162.646V167H449.35ZM460.861 167.144C458.688 167.144 457.375 165.66 457.375 163.309V163.302C457.375 160.984 458.715 159.433 460.786 159.433C462.857 159.433 464.129 160.93 464.129 163.158V163.678H458.865C458.893 165.1 459.672 165.927 460.896 165.927C461.846 165.927 462.413 165.455 462.591 165.072L462.618 165.018L464.047 165.011L464.033 165.072C463.787 166.05 462.762 167.144 460.861 167.144ZM460.793 160.649C459.781 160.649 459.016 161.34 458.886 162.618H462.659C462.543 161.292 461.798 160.649 460.793 160.649ZM465.893 167V159.576H467.376V160.697H467.485C467.752 159.911 468.442 159.446 469.434 159.446C469.673 159.446 469.933 159.48 470.083 159.515V160.882C469.816 160.827 469.563 160.793 469.283 160.793C468.148 160.793 467.376 161.49 467.376 162.563V167H465.893Z" fill="white"/>
</g>
<path d="M0 248H-1V249H0V248ZM591 247H0V249H591V247ZM1 248V0H-1V248H1Z" fill="white" mask="url(#path-1-inside-1_3555_2259)"/>
<defs>
<linearGradient id="paint0_linear_3555_2259" x1="-7" y1="258" x2="457.5" y2="158" gradientUnits="userSpaceOnUse">
<stop stop-color="white"/>
<stop offset="1" stop-color="#E5DCDC" stop-opacity="0"/>
</linearGradient>
<clipPath id="clip0_3555_2259">
<path d="M0 0H591V248H0V0Z" fill="white"/>
</clipPath>
</defs>
</svg>
