<svg width="154" height="199" viewBox="0 0 154 199" fill="none" xmlns="http://www.w3.org/2000/svg">
<g opacity="0.5" clip-path="url(#clip0_2523_21544)">
<path d="M10.1724 3.28076H3.15832C2.93869 3.28076 2.76065 3.45867 2.76065 3.67813C2.76065 3.89759 2.93869 4.07549 3.15832 4.07549H10.1724C10.392 4.07549 10.5701 3.89759 10.5701 3.67813C10.5701 3.45867 10.392 3.28076 10.1724 3.28076Z" fill="white"/>
<path d="M7.06305 0.173246C7.06305 -0.0462134 6.88501 -0.224121 6.66539 -0.224121C6.44576 -0.224121 6.26772 -0.0462134 6.26772 0.173246V7.1821C6.26772 7.40156 6.44576 7.57946 6.66539 7.57946C6.88501 7.57946 7.06305 7.40156 7.06305 7.1821V0.173246Z" fill="white"/>
<path d="M25.7913 3.28076H18.7772C18.5576 3.28076 18.3795 3.45867 18.3795 3.67813C18.3795 3.89759 18.5576 4.07549 18.7772 4.07549H25.7913C26.0109 4.07549 26.189 3.89759 26.189 3.67813C26.189 3.45867 26.0109 3.28076 25.7913 3.28076Z" fill="white"/>
<path d="M22.6819 0.173246C22.6819 -0.0462134 22.5039 -0.224121 22.2842 -0.224121C22.0646 -0.224121 21.8866 -0.0462134 21.8866 0.173246V7.1821C21.8866 7.40156 22.0646 7.57946 22.2842 7.57946C22.5039 7.57946 22.6819 7.40156 22.6819 7.1821V0.173246Z" fill="white"/>
<path d="M41.4102 3.28076H34.396C34.1764 3.28076 33.9984 3.45867 33.9984 3.67813C33.9984 3.89759 34.1764 4.07549 34.396 4.07549H41.4102C41.6298 4.07549 41.8078 3.89759 41.8078 3.67813C41.8078 3.45867 41.6298 3.28076 41.4102 3.28076Z" fill="white"/>
<path d="M38.3008 0.173246C38.3008 -0.0462134 38.1227 -0.224121 37.9031 -0.224121C37.6835 -0.224121 37.5054 -0.0462134 37.5054 0.173246V7.1821C37.5054 7.40156 37.6835 7.57946 37.9031 7.57946C38.1227 7.57946 38.3008 7.40156 38.3008 7.1821V0.173246Z" fill="white"/>
<path d="M57.029 3.28076H50.0149C49.7953 3.28076 49.6173 3.45867 49.6173 3.67813C49.6173 3.89759 49.7953 4.07549 50.0149 4.07549H57.029C57.2487 4.07549 57.4267 3.89759 57.4267 3.67813C57.4267 3.45867 57.2487 3.28076 57.029 3.28076Z" fill="white"/>
<path d="M53.9196 0.173246C53.9196 -0.0462134 53.7416 -0.224121 53.522 -0.224121C53.3023 -0.224121 53.1243 -0.0462134 53.1243 0.173246V7.1821C53.1243 7.40156 53.3023 7.57946 53.522 7.57946C53.7416 7.57946 53.9196 7.40156 53.9196 7.1821V0.173246Z" fill="white"/>
<path d="M72.6479 3.28076H65.6338C65.4142 3.28076 65.2361 3.45867 65.2361 3.67813C65.2361 3.89759 65.4142 4.07549 65.6338 4.07549H72.6479C72.8675 4.07549 73.0455 3.89759 73.0455 3.67813C73.0455 3.45867 72.8675 3.28076 72.6479 3.28076Z" fill="white"/>
<path d="M69.5385 0.173246C69.5385 -0.0462134 69.3605 -0.224121 69.1408 -0.224121C68.9212 -0.224121 68.7432 -0.0462134 68.7432 0.173246V7.1821C68.7432 7.40156 68.9212 7.57946 69.1408 7.57946C69.3605 7.57946 69.5385 7.40156 69.5385 7.1821V0.173246Z" fill="white"/>
<path d="M88.2668 3.28076H81.2526C81.033 3.28076 80.855 3.45867 80.855 3.67813C80.855 3.89759 81.033 4.07549 81.2526 4.07549H88.2668C88.4864 4.07549 88.6644 3.89759 88.6644 3.67813C88.6644 3.45867 88.4864 3.28076 88.2668 3.28076Z" fill="white"/>
<path d="M85.1574 0.173246C85.1574 -0.0462134 84.9793 -0.224121 84.7597 -0.224121C84.5401 -0.224121 84.362 -0.0462134 84.362 0.173246V7.1821C84.362 7.40156 84.5401 7.57946 84.7597 7.57946C84.9793 7.57946 85.1574 7.40156 85.1574 7.1821V0.173246Z" fill="white"/>
<path d="M103.886 3.28076H96.8715C96.6519 3.28076 96.4738 3.45867 96.4738 3.67813C96.4738 3.89759 96.6519 4.07549 96.8715 4.07549H103.886C104.105 4.07549 104.283 3.89759 104.283 3.67813C104.283 3.45867 104.105 3.28076 103.886 3.28076Z" fill="white"/>
<path d="M100.776 0.173246C100.776 -0.0462134 100.598 -0.224121 100.379 -0.224121C100.159 -0.224121 99.9809 -0.0462134 99.9809 0.173246V7.1821C99.9809 7.40156 100.159 7.57946 100.379 7.57946C100.598 7.57946 100.776 7.40156 100.776 7.1821V0.173246Z" fill="white"/>
<path d="M119.504 3.28076H112.49C112.271 3.28076 112.093 3.45867 112.093 3.67813C112.093 3.89759 112.271 4.07549 112.49 4.07549H119.504C119.724 4.07549 119.902 3.89759 119.902 3.67813C119.902 3.45867 119.724 3.28076 119.504 3.28076Z" fill="white"/>
<path d="M116.395 0.173246C116.395 -0.0462134 116.217 -0.224121 115.997 -0.224121C115.778 -0.224121 115.6 -0.0462134 115.6 0.173246V7.1821C115.6 7.40156 115.778 7.57946 115.997 7.57946C116.217 7.57946 116.395 7.40156 116.395 7.1821V0.173246Z" fill="white"/>
<path d="M135.123 3.28076H128.109C127.89 3.28076 127.712 3.45867 127.712 3.67813C127.712 3.89759 127.89 4.07549 128.109 4.07549H135.123C135.343 4.07549 135.521 3.89759 135.521 3.67813C135.521 3.45867 135.343 3.28076 135.123 3.28076Z" fill="white"/>
<path d="M132.014 0.173246C132.014 -0.0462134 131.836 -0.224121 131.616 -0.224121C131.397 -0.224121 131.219 -0.0462134 131.219 0.173246V7.1821C131.219 7.40156 131.397 7.57946 131.616 7.57946C131.836 7.57946 132.014 7.40156 132.014 7.1821V0.173246Z" fill="white"/>
<path d="M150.742 3.28076H143.728C143.508 3.28076 143.33 3.45867 143.33 3.67813C143.33 3.89759 143.508 4.07549 143.728 4.07549H150.742C150.962 4.07549 151.14 3.89759 151.14 3.67813C151.14 3.45867 150.962 3.28076 150.742 3.28076Z" fill="white"/>
<path d="M147.633 0.173246C147.633 -0.0462134 147.455 -0.224121 147.235 -0.224121C147.016 -0.224121 146.837 -0.0462134 146.837 0.173246V7.1821C146.837 7.40156 147.016 7.57946 147.235 7.57946C147.455 7.57946 147.633 7.40156 147.633 7.1821V0.173246Z" fill="white"/>
<path d="M10.1724 18.8877H3.15832C2.93869 18.8877 2.76065 19.0656 2.76065 19.2851C2.76065 19.5045 2.93869 19.6824 3.15832 19.6824H10.1724C10.392 19.6824 10.5701 19.5045 10.5701 19.2851C10.5701 19.0656 10.392 18.8877 10.1724 18.8877Z" fill="white"/>
<path d="M7.06305 15.7807C7.06305 15.5612 6.88501 15.3833 6.66539 15.3833C6.44576 15.3833 6.26772 15.5612 6.26772 15.7807V22.7895C6.26772 23.009 6.44576 23.1869 6.66539 23.1869C6.88501 23.1869 7.06305 23.009 7.06305 22.7895V15.7807Z" fill="white"/>
<path d="M25.7913 18.8877H18.7772C18.5576 18.8877 18.3795 19.0656 18.3795 19.2851C18.3795 19.5045 18.5576 19.6824 18.7772 19.6824H25.7913C26.0109 19.6824 26.189 19.5045 26.189 19.2851C26.189 19.0656 26.0109 18.8877 25.7913 18.8877Z" fill="white"/>
<path d="M22.6819 15.7807C22.6819 15.5612 22.5039 15.3833 22.2842 15.3833C22.0646 15.3833 21.8866 15.5612 21.8866 15.7807V22.7895C21.8866 23.009 22.0646 23.1869 22.2842 23.1869C22.5039 23.1869 22.6819 23.009 22.6819 22.7895V15.7807Z" fill="white"/>
<path d="M41.4102 18.8877H34.396C34.1764 18.8877 33.9984 19.0656 33.9984 19.2851C33.9984 19.5045 34.1764 19.6824 34.396 19.6824H41.4102C41.6298 19.6824 41.8078 19.5045 41.8078 19.2851C41.8078 19.0656 41.6298 18.8877 41.4102 18.8877Z" fill="white"/>
<path d="M38.3008 15.7807C38.3008 15.5612 38.1227 15.3833 37.9031 15.3833C37.6835 15.3833 37.5054 15.5612 37.5054 15.7807V22.7895C37.5054 23.009 37.6835 23.1869 37.9031 23.1869C38.1227 23.1869 38.3008 23.009 38.3008 22.7895V15.7807Z" fill="white"/>
<path d="M57.029 18.8877H50.0149C49.7953 18.8877 49.6173 19.0656 49.6173 19.2851C49.6173 19.5045 49.7953 19.6824 50.0149 19.6824H57.029C57.2487 19.6824 57.4267 19.5045 57.4267 19.2851C57.4267 19.0656 57.2487 18.8877 57.029 18.8877Z" fill="white"/>
<path d="M53.9196 15.7807C53.9196 15.5612 53.7416 15.3833 53.522 15.3833C53.3023 15.3833 53.1243 15.5612 53.1243 15.7807V22.7895C53.1243 23.009 53.3023 23.1869 53.522 23.1869C53.7416 23.1869 53.9196 23.009 53.9196 22.7895V15.7807Z" fill="white"/>
<path d="M72.6479 18.8877H65.6338C65.4142 18.8877 65.2361 19.0656 65.2361 19.2851C65.2361 19.5045 65.4142 19.6824 65.6338 19.6824H72.6479C72.8675 19.6824 73.0455 19.5045 73.0455 19.2851C73.0455 19.0656 72.8675 18.8877 72.6479 18.8877Z" fill="white"/>
<path d="M69.5385 15.7807C69.5385 15.5612 69.3605 15.3833 69.1408 15.3833C68.9212 15.3833 68.7432 15.5612 68.7432 15.7807V22.7895C68.7432 23.009 68.9212 23.1869 69.1408 23.1869C69.3605 23.1869 69.5385 23.009 69.5385 22.7895V15.7807Z" fill="white"/>
<path d="M88.2668 18.8877H81.2526C81.033 18.8877 80.855 19.0656 80.855 19.2851C80.855 19.5045 81.033 19.6824 81.2526 19.6824H88.2668C88.4864 19.6824 88.6644 19.5045 88.6644 19.2851C88.6644 19.0656 88.4864 18.8877 88.2668 18.8877Z" fill="white"/>
<path d="M85.1574 15.7807C85.1574 15.5612 84.9793 15.3833 84.7597 15.3833C84.5401 15.3833 84.362 15.5612 84.362 15.7807V22.7895C84.362 23.009 84.5401 23.1869 84.7597 23.1869C84.9793 23.1869 85.1574 23.009 85.1574 22.7895V15.7807Z" fill="white"/>
<path d="M103.886 18.8877H96.8715C96.6519 18.8877 96.4738 19.0656 96.4738 19.2851C96.4738 19.5045 96.6519 19.6824 96.8715 19.6824H103.886C104.105 19.6824 104.283 19.5045 104.283 19.2851C104.283 19.0656 104.105 18.8877 103.886 18.8877Z" fill="white"/>
<path d="M100.776 15.7807C100.776 15.5612 100.598 15.3833 100.379 15.3833C100.159 15.3833 99.9809 15.5612 99.9809 15.7807V22.7895C99.9809 23.009 100.159 23.1869 100.379 23.1869C100.598 23.1869 100.776 23.009 100.776 22.7895V15.7807Z" fill="white"/>
<path d="M119.504 18.8877H112.49C112.271 18.8877 112.093 19.0656 112.093 19.2851C112.093 19.5045 112.271 19.6824 112.49 19.6824H119.504C119.724 19.6824 119.902 19.5045 119.902 19.2851C119.902 19.0656 119.724 18.8877 119.504 18.8877Z" fill="white"/>
<path d="M116.395 15.7807C116.395 15.5612 116.217 15.3833 115.997 15.3833C115.778 15.3833 115.6 15.5612 115.6 15.7807V22.7895C115.6 23.009 115.778 23.1869 115.997 23.1869C116.217 23.1869 116.395 23.009 116.395 22.7895V15.7807Z" fill="white"/>
<path d="M135.123 18.8877H128.109C127.89 18.8877 127.712 19.0656 127.712 19.2851C127.712 19.5045 127.89 19.6824 128.109 19.6824H135.123C135.343 19.6824 135.521 19.5045 135.521 19.2851C135.521 19.0656 135.343 18.8877 135.123 18.8877Z" fill="white"/>
<path d="M132.014 15.7807C132.014 15.5612 131.836 15.3833 131.616 15.3833C131.397 15.3833 131.219 15.5612 131.219 15.7807V22.7895C131.219 23.009 131.397 23.1869 131.616 23.1869C131.836 23.1869 132.014 23.009 132.014 22.7895V15.7807Z" fill="white"/>
<path d="M150.742 18.8877H143.728C143.508 18.8877 143.33 19.0656 143.33 19.2851C143.33 19.5045 143.508 19.6824 143.728 19.6824H150.742C150.962 19.6824 151.14 19.5045 151.14 19.2851C151.14 19.0656 150.962 18.8877 150.742 18.8877Z" fill="white"/>
<path d="M147.633 15.7807C147.633 15.5612 147.455 15.3833 147.235 15.3833C147.016 15.3833 146.837 15.5612 146.837 15.7807V22.7895C146.837 23.009 147.016 23.1869 147.235 23.1869C147.455 23.1869 147.633 23.009 147.633 22.7895V15.7807Z" fill="white"/>
<path d="M10.1724 34.4951H3.15832C2.93869 34.4951 2.76065 34.673 2.76065 34.8925C2.76065 35.1119 2.93869 35.2898 3.15832 35.2898H10.1724C10.392 35.2898 10.5701 35.1119 10.5701 34.8925C10.5701 34.673 10.392 34.4951 10.1724 34.4951Z" fill="white"/>
<path d="M7.06305 31.3876C7.06305 31.1681 6.88501 30.9902 6.66539 30.9902C6.44576 30.9902 6.26772 31.1681 6.26772 31.3876V38.3965C6.26772 38.6159 6.44576 38.7938 6.66539 38.7938C6.88501 38.7938 7.06305 38.6159 7.06305 38.3965V31.3876Z" fill="white"/>
<path d="M25.7913 34.4951H18.7772C18.5576 34.4951 18.3795 34.673 18.3795 34.8925C18.3795 35.1119 18.5576 35.2898 18.7772 35.2898H25.7913C26.0109 35.2898 26.189 35.1119 26.189 34.8925C26.189 34.673 26.0109 34.4951 25.7913 34.4951Z" fill="white"/>
<path d="M22.6819 31.3876C22.6819 31.1681 22.5039 30.9902 22.2842 30.9902C22.0646 30.9902 21.8866 31.1681 21.8866 31.3876V38.3965C21.8866 38.6159 22.0646 38.7938 22.2842 38.7938C22.5039 38.7938 22.6819 38.6159 22.6819 38.3965V31.3876Z" fill="white"/>
<path d="M41.4102 34.4951H34.396C34.1764 34.4951 33.9984 34.673 33.9984 34.8925C33.9984 35.1119 34.1764 35.2898 34.396 35.2898H41.4102C41.6298 35.2898 41.8078 35.1119 41.8078 34.8925C41.8078 34.673 41.6298 34.4951 41.4102 34.4951Z" fill="white"/>
<path d="M38.3008 31.3876C38.3008 31.1681 38.1227 30.9902 37.9031 30.9902C37.6835 30.9902 37.5054 31.1681 37.5054 31.3876V38.3965C37.5054 38.6159 37.6835 38.7938 37.9031 38.7938C38.1227 38.7938 38.3008 38.6159 38.3008 38.3965V31.3876Z" fill="white"/>
<path d="M57.029 34.4951H50.0149C49.7953 34.4951 49.6173 34.673 49.6173 34.8925C49.6173 35.1119 49.7953 35.2898 50.0149 35.2898H57.029C57.2487 35.2898 57.4267 35.1119 57.4267 34.8925C57.4267 34.673 57.2487 34.4951 57.029 34.4951Z" fill="white"/>
<path d="M53.9196 31.3876C53.9196 31.1681 53.7416 30.9902 53.522 30.9902C53.3023 30.9902 53.1243 31.1681 53.1243 31.3876V38.3965C53.1243 38.6159 53.3023 38.7938 53.522 38.7938C53.7416 38.7938 53.9196 38.6159 53.9196 38.3965V31.3876Z" fill="white"/>
<path d="M72.6479 34.4951H65.6338C65.4142 34.4951 65.2361 34.673 65.2361 34.8925C65.2361 35.1119 65.4142 35.2898 65.6338 35.2898H72.6479C72.8675 35.2898 73.0455 35.1119 73.0455 34.8925C73.0455 34.673 72.8675 34.4951 72.6479 34.4951Z" fill="white"/>
<path d="M69.5385 31.3876C69.5385 31.1681 69.3605 30.9902 69.1408 30.9902C68.9212 30.9902 68.7432 31.1681 68.7432 31.3876V38.3965C68.7432 38.6159 68.9212 38.7938 69.1408 38.7938C69.3605 38.7938 69.5385 38.6159 69.5385 38.3965V31.3876Z" fill="white"/>
<path d="M88.2668 34.4951H81.2526C81.033 34.4951 80.855 34.673 80.855 34.8925C80.855 35.1119 81.033 35.2898 81.2526 35.2898H88.2668C88.4864 35.2898 88.6644 35.1119 88.6644 34.8925C88.6644 34.673 88.4864 34.4951 88.2668 34.4951Z" fill="white"/>
<path d="M85.1574 31.3876C85.1574 31.1681 84.9793 30.9902 84.7597 30.9902C84.5401 30.9902 84.362 31.1681 84.362 31.3876V38.3965C84.362 38.6159 84.5401 38.7938 84.7597 38.7938C84.9793 38.7938 85.1574 38.6159 85.1574 38.3965V31.3876Z" fill="white"/>
<path d="M103.886 34.4951H96.8715C96.6519 34.4951 96.4738 34.673 96.4738 34.8925C96.4738 35.1119 96.6519 35.2898 96.8715 35.2898H103.886C104.105 35.2898 104.283 35.1119 104.283 34.8925C104.283 34.673 104.105 34.4951 103.886 34.4951Z" fill="white"/>
<path d="M100.776 31.3876C100.776 31.1681 100.598 30.9902 100.379 30.9902C100.159 30.9902 99.9809 31.1681 99.9809 31.3876V38.3965C99.9809 38.6159 100.159 38.7938 100.379 38.7938C100.598 38.7938 100.776 38.6159 100.776 38.3965V31.3876Z" fill="white"/>
<path d="M119.504 34.4951H112.49C112.271 34.4951 112.093 34.673 112.093 34.8925C112.093 35.1119 112.271 35.2898 112.49 35.2898H119.504C119.724 35.2898 119.902 35.1119 119.902 34.8925C119.902 34.673 119.724 34.4951 119.504 34.4951Z" fill="white"/>
<path d="M116.395 31.3876C116.395 31.1681 116.217 30.9902 115.997 30.9902C115.778 30.9902 115.6 31.1681 115.6 31.3876V38.3965C115.6 38.6159 115.778 38.7938 115.997 38.7938C116.217 38.7938 116.395 38.6159 116.395 38.3965V31.3876Z" fill="white"/>
<path d="M135.123 34.4951H128.109C127.89 34.4951 127.712 34.673 127.712 34.8925C127.712 35.1119 127.89 35.2898 128.109 35.2898H135.123C135.343 35.2898 135.521 35.1119 135.521 34.8925C135.521 34.673 135.343 34.4951 135.123 34.4951Z" fill="white"/>
<path d="M132.014 31.3876C132.014 31.1681 131.836 30.9902 131.616 30.9902C131.397 30.9902 131.219 31.1681 131.219 31.3876V38.3965C131.219 38.6159 131.397 38.7938 131.616 38.7938C131.836 38.7938 132.014 38.6159 132.014 38.3965V31.3876Z" fill="white"/>
<path d="M150.742 34.4951H143.728C143.508 34.4951 143.33 34.673 143.33 34.8925C143.33 35.1119 143.508 35.2898 143.728 35.2898H150.742C150.962 35.2898 151.14 35.1119 151.14 34.8925C151.14 34.673 150.962 34.4951 150.742 34.4951Z" fill="white"/>
<path d="M147.633 31.3876C147.633 31.1681 147.455 30.9902 147.235 30.9902C147.016 30.9902 146.837 31.1681 146.837 31.3876V38.3965C146.837 38.6159 147.016 38.7938 147.235 38.7938C147.455 38.7938 147.633 38.6159 147.633 38.3965V31.3876Z" fill="white"/>
<path d="M10.1724 50.1021H3.15832C2.93869 50.1021 2.76065 50.28 2.76065 50.4994C2.76065 50.7189 2.93869 50.8968 3.15832 50.8968H10.1724C10.392 50.8968 10.5701 50.7189 10.5701 50.4994C10.5701 50.28 10.392 50.1021 10.1724 50.1021Z" fill="white"/>
<path d="M7.06305 46.995C7.06305 46.7756 6.88501 46.5977 6.66539 46.5977C6.44576 46.5977 6.26772 46.7756 6.26772 46.995V54.0039C6.26772 54.2233 6.44576 54.4012 6.66539 54.4012C6.88501 54.4012 7.06305 54.2233 7.06305 54.0039V46.995Z" fill="white"/>
<path d="M25.7913 50.1021H18.7772C18.5576 50.1021 18.3795 50.28 18.3795 50.4994C18.3795 50.7189 18.5576 50.8968 18.7772 50.8968H25.7913C26.0109 50.8968 26.189 50.7189 26.189 50.4994C26.189 50.28 26.0109 50.1021 25.7913 50.1021Z" fill="white"/>
<path d="M22.6819 46.995C22.6819 46.7756 22.5039 46.5977 22.2842 46.5977C22.0646 46.5977 21.8866 46.7756 21.8866 46.995V54.0039C21.8866 54.2233 22.0646 54.4012 22.2842 54.4012C22.5039 54.4012 22.6819 54.2233 22.6819 54.0039V46.995Z" fill="white"/>
<path d="M41.4102 50.1021H34.396C34.1764 50.1021 33.9984 50.28 33.9984 50.4994C33.9984 50.7189 34.1764 50.8968 34.396 50.8968H41.4102C41.6298 50.8968 41.8078 50.7189 41.8078 50.4994C41.8078 50.28 41.6298 50.1021 41.4102 50.1021Z" fill="white"/>
<path d="M38.3008 46.995C38.3008 46.7756 38.1227 46.5977 37.9031 46.5977C37.6835 46.5977 37.5054 46.7756 37.5054 46.995V54.0039C37.5054 54.2233 37.6835 54.4012 37.9031 54.4012C38.1227 54.4012 38.3008 54.2233 38.3008 54.0039V46.995Z" fill="white"/>
<path d="M57.029 50.1021H50.0149C49.7953 50.1021 49.6173 50.28 49.6173 50.4994C49.6173 50.7189 49.7953 50.8968 50.0149 50.8968H57.029C57.2487 50.8968 57.4267 50.7189 57.4267 50.4994C57.4267 50.28 57.2487 50.1021 57.029 50.1021Z" fill="white"/>
<path d="M53.9196 46.995C53.9196 46.7756 53.7416 46.5977 53.522 46.5977C53.3023 46.5977 53.1243 46.7756 53.1243 46.995V54.0039C53.1243 54.2233 53.3023 54.4012 53.522 54.4012C53.7416 54.4012 53.9196 54.2233 53.9196 54.0039V46.995Z" fill="white"/>
<path d="M72.6479 50.1021H65.6338C65.4142 50.1021 65.2361 50.28 65.2361 50.4994C65.2361 50.7189 65.4142 50.8968 65.6338 50.8968H72.6479C72.8675 50.8968 73.0455 50.7189 73.0455 50.4994C73.0455 50.28 72.8675 50.1021 72.6479 50.1021Z" fill="white"/>
<path d="M69.5385 46.995C69.5385 46.7756 69.3605 46.5977 69.1408 46.5977C68.9212 46.5977 68.7432 46.7756 68.7432 46.995V54.0039C68.7432 54.2233 68.9212 54.4012 69.1408 54.4012C69.3605 54.4012 69.5385 54.2233 69.5385 54.0039V46.995Z" fill="white"/>
<path d="M88.2668 50.1021H81.2526C81.033 50.1021 80.855 50.28 80.855 50.4994C80.855 50.7189 81.033 50.8968 81.2526 50.8968H88.2668C88.4864 50.8968 88.6644 50.7189 88.6644 50.4994C88.6644 50.28 88.4864 50.1021 88.2668 50.1021Z" fill="white"/>
<path d="M85.1574 46.995C85.1574 46.7756 84.9793 46.5977 84.7597 46.5977C84.5401 46.5977 84.362 46.7756 84.362 46.995V54.0039C84.362 54.2233 84.5401 54.4012 84.7597 54.4012C84.9793 54.4012 85.1574 54.2233 85.1574 54.0039V46.995Z" fill="white"/>
<path d="M103.886 50.1021H96.8715C96.6519 50.1021 96.4738 50.28 96.4738 50.4994C96.4738 50.7189 96.6519 50.8968 96.8715 50.8968H103.886C104.105 50.8968 104.283 50.7189 104.283 50.4994C104.283 50.28 104.105 50.1021 103.886 50.1021Z" fill="white"/>
<path d="M100.776 46.995C100.776 46.7756 100.598 46.5977 100.379 46.5977C100.159 46.5977 99.9809 46.7756 99.9809 46.995V54.0039C99.9809 54.2233 100.159 54.4012 100.379 54.4012C100.598 54.4012 100.776 54.2233 100.776 54.0039V46.995Z" fill="white"/>
<path d="M119.504 50.1021H112.49C112.271 50.1021 112.093 50.28 112.093 50.4994C112.093 50.7189 112.271 50.8968 112.49 50.8968H119.504C119.724 50.8968 119.902 50.7189 119.902 50.4994C119.902 50.28 119.724 50.1021 119.504 50.1021Z" fill="white"/>
<path d="M116.395 46.995C116.395 46.7756 116.217 46.5977 115.997 46.5977C115.778 46.5977 115.6 46.7756 115.6 46.995V54.0039C115.6 54.2233 115.778 54.4012 115.997 54.4012C116.217 54.4012 116.395 54.2233 116.395 54.0039V46.995Z" fill="white"/>
<path d="M135.123 50.1021H128.109C127.89 50.1021 127.712 50.28 127.712 50.4994C127.712 50.7189 127.89 50.8968 128.109 50.8968H135.123C135.343 50.8968 135.521 50.7189 135.521 50.4994C135.521 50.28 135.343 50.1021 135.123 50.1021Z" fill="white"/>
<path d="M132.014 46.995C132.014 46.7756 131.836 46.5977 131.616 46.5977C131.397 46.5977 131.219 46.7756 131.219 46.995V54.0039C131.219 54.2233 131.397 54.4012 131.616 54.4012C131.836 54.4012 132.014 54.2233 132.014 54.0039V46.995Z" fill="white"/>
<path d="M150.742 50.1021H143.728C143.508 50.1021 143.33 50.28 143.33 50.4994C143.33 50.7189 143.508 50.8968 143.728 50.8968H150.742C150.962 50.8968 151.14 50.7189 151.14 50.4994C151.14 50.28 150.962 50.1021 150.742 50.1021Z" fill="white"/>
<path d="M147.633 46.995C147.633 46.7756 147.455 46.5977 147.235 46.5977C147.016 46.5977 146.837 46.7756 146.837 46.995V54.0039C146.837 54.2233 147.016 54.4012 147.235 54.4012C147.455 54.4012 147.633 54.2233 147.633 54.0039V46.995Z" fill="white"/>
<path d="M10.1724 65.709H3.15832C2.93869 65.709 2.76065 65.8869 2.76065 66.1064C2.76065 66.3258 2.93869 66.5037 3.15832 66.5037H10.1724C10.392 66.5037 10.5701 66.3258 10.5701 66.1064C10.5701 65.8869 10.392 65.709 10.1724 65.709Z" fill="white"/>
<path d="M7.06305 62.602C7.06305 62.3825 6.88501 62.2046 6.66539 62.2046C6.44576 62.2046 6.26772 62.3825 6.26772 62.602V69.6108C6.26772 69.8303 6.44576 70.0082 6.66539 70.0082C6.88501 70.0082 7.06305 69.8303 7.06305 69.6108V62.602Z" fill="white"/>
<path d="M25.7913 65.709H18.7772C18.5576 65.709 18.3795 65.8869 18.3795 66.1064C18.3795 66.3258 18.5576 66.5037 18.7772 66.5037H25.7913C26.0109 66.5037 26.189 66.3258 26.189 66.1064C26.189 65.8869 26.0109 65.709 25.7913 65.709Z" fill="white"/>
<path d="M22.6819 62.602C22.6819 62.3825 22.5039 62.2046 22.2842 62.2046C22.0646 62.2046 21.8866 62.3825 21.8866 62.602V69.6108C21.8866 69.8303 22.0646 70.0082 22.2842 70.0082C22.5039 70.0082 22.6819 69.8303 22.6819 69.6108V62.602Z" fill="white"/>
<path d="M41.4102 65.709H34.396C34.1764 65.709 33.9984 65.8869 33.9984 66.1064C33.9984 66.3258 34.1764 66.5037 34.396 66.5037H41.4102C41.6298 66.5037 41.8078 66.3258 41.8078 66.1064C41.8078 65.8869 41.6298 65.709 41.4102 65.709Z" fill="white"/>
<path d="M38.3008 62.602C38.3008 62.3825 38.1227 62.2046 37.9031 62.2046C37.6835 62.2046 37.5054 62.3825 37.5054 62.602V69.6108C37.5054 69.8303 37.6835 70.0082 37.9031 70.0082C38.1227 70.0082 38.3008 69.8303 38.3008 69.6108V62.602Z" fill="white"/>
<path d="M57.029 65.709H50.0149C49.7953 65.709 49.6173 65.8869 49.6173 66.1064C49.6173 66.3258 49.7953 66.5037 50.0149 66.5037H57.029C57.2487 66.5037 57.4267 66.3258 57.4267 66.1064C57.4267 65.8869 57.2487 65.709 57.029 65.709Z" fill="white"/>
<path d="M53.9196 62.602C53.9196 62.3825 53.7416 62.2046 53.522 62.2046C53.3023 62.2046 53.1243 62.3825 53.1243 62.602V69.6108C53.1243 69.8303 53.3023 70.0082 53.522 70.0082C53.7416 70.0082 53.9196 69.8303 53.9196 69.6108V62.602Z" fill="white"/>
<path d="M72.6479 65.709H65.6338C65.4142 65.709 65.2361 65.8869 65.2361 66.1064C65.2361 66.3258 65.4142 66.5037 65.6338 66.5037H72.6479C72.8675 66.5037 73.0455 66.3258 73.0455 66.1064C73.0455 65.8869 72.8675 65.709 72.6479 65.709Z" fill="white"/>
<path d="M69.5385 62.602C69.5385 62.3825 69.3605 62.2046 69.1408 62.2046C68.9212 62.2046 68.7432 62.3825 68.7432 62.602V69.6108C68.7432 69.8303 68.9212 70.0082 69.1408 70.0082C69.3605 70.0082 69.5385 69.8303 69.5385 69.6108V62.602Z" fill="white"/>
<path d="M88.2668 65.709H81.2526C81.033 65.709 80.855 65.8869 80.855 66.1064C80.855 66.3258 81.033 66.5037 81.2526 66.5037H88.2668C88.4864 66.5037 88.6644 66.3258 88.6644 66.1064C88.6644 65.8869 88.4864 65.709 88.2668 65.709Z" fill="white"/>
<path d="M85.1574 62.602C85.1574 62.3825 84.9793 62.2046 84.7597 62.2046C84.5401 62.2046 84.362 62.3825 84.362 62.602V69.6108C84.362 69.8303 84.5401 70.0082 84.7597 70.0082C84.9793 70.0082 85.1574 69.8303 85.1574 69.6108V62.602Z" fill="white"/>
<path d="M103.886 65.709H96.8715C96.6519 65.709 96.4738 65.8869 96.4738 66.1064C96.4738 66.3258 96.6519 66.5037 96.8715 66.5037H103.886C104.105 66.5037 104.283 66.3258 104.283 66.1064C104.283 65.8869 104.105 65.709 103.886 65.709Z" fill="white"/>
<path d="M100.776 62.602C100.776 62.3825 100.598 62.2046 100.379 62.2046C100.159 62.2046 99.9809 62.3825 99.9809 62.602V69.6108C99.9809 69.8303 100.159 70.0082 100.379 70.0082C100.598 70.0082 100.776 69.8303 100.776 69.6108V62.602Z" fill="white"/>
<path d="M119.504 65.709H112.49C112.271 65.709 112.093 65.8869 112.093 66.1064C112.093 66.3258 112.271 66.5037 112.49 66.5037H119.504C119.724 66.5037 119.902 66.3258 119.902 66.1064C119.902 65.8869 119.724 65.709 119.504 65.709Z" fill="white"/>
<path d="M116.395 62.602C116.395 62.3825 116.217 62.2046 115.997 62.2046C115.778 62.2046 115.6 62.3825 115.6 62.602V69.6108C115.6 69.8303 115.778 70.0082 115.997 70.0082C116.217 70.0082 116.395 69.8303 116.395 69.6108V62.602Z" fill="white"/>
<path d="M135.123 65.709H128.109C127.89 65.709 127.712 65.8869 127.712 66.1064C127.712 66.3258 127.89 66.5037 128.109 66.5037H135.123C135.343 66.5037 135.521 66.3258 135.521 66.1064C135.521 65.8869 135.343 65.709 135.123 65.709Z" fill="white"/>
<path d="M132.014 62.602C132.014 62.3825 131.836 62.2046 131.616 62.2046C131.397 62.2046 131.219 62.3825 131.219 62.602V69.6108C131.219 69.8303 131.397 70.0082 131.616 70.0082C131.836 70.0082 132.014 69.8303 132.014 69.6108V62.602Z" fill="white"/>
<path d="M150.742 65.709H143.728C143.508 65.709 143.33 65.8869 143.33 66.1064C143.33 66.3258 143.508 66.5037 143.728 66.5037H150.742C150.962 66.5037 151.14 66.3258 151.14 66.1064C151.14 65.8869 150.962 65.709 150.742 65.709Z" fill="white"/>
<path d="M147.633 62.602C147.633 62.3825 147.455 62.2046 147.235 62.2046C147.016 62.2046 146.837 62.3825 146.837 62.602V69.6108C146.837 69.8303 147.016 70.0082 147.235 70.0082C147.455 70.0082 147.633 69.8303 147.633 69.6108V62.602Z" fill="white"/>
<path d="M10.1724 81.3164H3.15832C2.93869 81.3164 2.76065 81.4943 2.76065 81.7138C2.76065 81.9332 2.93869 82.1111 3.15832 82.1111H10.1724C10.392 82.1111 10.5701 81.9332 10.5701 81.7138C10.5701 81.4943 10.392 81.3164 10.1724 81.3164Z" fill="white"/>
<path d="M7.06305 78.2094C7.06305 77.9899 6.88501 77.812 6.66539 77.812C6.44576 77.812 6.26772 77.9899 6.26772 78.2094V85.2182C6.26772 85.4377 6.44576 85.6156 6.66539 85.6156C6.88501 85.6156 7.06305 85.4377 7.06305 85.2182V78.2094Z" fill="white"/>
<path d="M25.7913 81.3164H18.7772C18.5576 81.3164 18.3795 81.4943 18.3795 81.7138C18.3795 81.9332 18.5576 82.1111 18.7772 82.1111H25.7913C26.0109 82.1111 26.189 81.9332 26.189 81.7138C26.189 81.4943 26.0109 81.3164 25.7913 81.3164Z" fill="white"/>
<path d="M22.6819 78.2094C22.6819 77.9899 22.5039 77.812 22.2842 77.812C22.0646 77.812 21.8866 77.9899 21.8866 78.2094V85.2182C21.8866 85.4377 22.0646 85.6156 22.2842 85.6156C22.5039 85.6156 22.6819 85.4377 22.6819 85.2182V78.2094Z" fill="white"/>
<path d="M41.4102 81.3164H34.396C34.1764 81.3164 33.9984 81.4943 33.9984 81.7138C33.9984 81.9332 34.1764 82.1111 34.396 82.1111H41.4102C41.6298 82.1111 41.8078 81.9332 41.8078 81.7138C41.8078 81.4943 41.6298 81.3164 41.4102 81.3164Z" fill="white"/>
<path d="M38.3008 78.2094C38.3008 77.9899 38.1227 77.812 37.9031 77.812C37.6835 77.812 37.5054 77.9899 37.5054 78.2094V85.2182C37.5054 85.4377 37.6835 85.6156 37.9031 85.6156C38.1227 85.6156 38.3008 85.4377 38.3008 85.2182V78.2094Z" fill="white"/>
<path d="M57.029 81.3164H50.0149C49.7953 81.3164 49.6173 81.4943 49.6173 81.7138C49.6173 81.9332 49.7953 82.1111 50.0149 82.1111H57.029C57.2487 82.1111 57.4267 81.9332 57.4267 81.7138C57.4267 81.4943 57.2487 81.3164 57.029 81.3164Z" fill="white"/>
<path d="M53.9196 78.2094C53.9196 77.9899 53.7416 77.812 53.522 77.812C53.3023 77.812 53.1243 77.9899 53.1243 78.2094V85.2182C53.1243 85.4377 53.3023 85.6156 53.522 85.6156C53.7416 85.6156 53.9196 85.4377 53.9196 85.2182V78.2094Z" fill="white"/>
<path d="M72.6479 81.3164H65.6338C65.4142 81.3164 65.2361 81.4943 65.2361 81.7138C65.2361 81.9332 65.4142 82.1111 65.6338 82.1111H72.6479C72.8675 82.1111 73.0455 81.9332 73.0455 81.7138C73.0455 81.4943 72.8675 81.3164 72.6479 81.3164Z" fill="white"/>
<path d="M69.5385 78.2094C69.5385 77.9899 69.3605 77.812 69.1408 77.812C68.9212 77.812 68.7432 77.9899 68.7432 78.2094V85.2182C68.7432 85.4377 68.9212 85.6156 69.1408 85.6156C69.3605 85.6156 69.5385 85.4377 69.5385 85.2182V78.2094Z" fill="white"/>
<path d="M88.2668 81.3164H81.2526C81.033 81.3164 80.855 81.4943 80.855 81.7138C80.855 81.9332 81.033 82.1111 81.2526 82.1111H88.2668C88.4864 82.1111 88.6644 81.9332 88.6644 81.7138C88.6644 81.4943 88.4864 81.3164 88.2668 81.3164Z" fill="white"/>
<path d="M85.1574 78.2094C85.1574 77.9899 84.9793 77.812 84.7597 77.812C84.5401 77.812 84.362 77.9899 84.362 78.2094V85.2182C84.362 85.4377 84.5401 85.6156 84.7597 85.6156C84.9793 85.6156 85.1574 85.4377 85.1574 85.2182V78.2094Z" fill="white"/>
<path d="M103.886 81.3164H96.8715C96.6519 81.3164 96.4738 81.4943 96.4738 81.7138C96.4738 81.9332 96.6519 82.1111 96.8715 82.1111H103.886C104.105 82.1111 104.283 81.9332 104.283 81.7138C104.283 81.4943 104.105 81.3164 103.886 81.3164Z" fill="white"/>
<path d="M100.776 78.2094C100.776 77.9899 100.598 77.812 100.379 77.812C100.159 77.812 99.9809 77.9899 99.9809 78.2094V85.2182C99.9809 85.4377 100.159 85.6156 100.379 85.6156C100.598 85.6156 100.776 85.4377 100.776 85.2182V78.2094Z" fill="white"/>
<path d="M119.504 81.3164H112.49C112.271 81.3164 112.093 81.4943 112.093 81.7138C112.093 81.9332 112.271 82.1111 112.49 82.1111H119.504C119.724 82.1111 119.902 81.9332 119.902 81.7138C119.902 81.4943 119.724 81.3164 119.504 81.3164Z" fill="white"/>
<path d="M116.395 78.2094C116.395 77.9899 116.217 77.812 115.997 77.812C115.778 77.812 115.6 77.9899 115.6 78.2094V85.2182C115.6 85.4377 115.778 85.6156 115.997 85.6156C116.217 85.6156 116.395 85.4377 116.395 85.2182V78.2094Z" fill="white"/>
<path d="M135.123 81.3164H128.109C127.89 81.3164 127.712 81.4943 127.712 81.7138C127.712 81.9332 127.89 82.1111 128.109 82.1111H135.123C135.343 82.1111 135.521 81.9332 135.521 81.7138C135.521 81.4943 135.343 81.3164 135.123 81.3164Z" fill="white"/>
<path d="M132.014 78.2094C132.014 77.9899 131.836 77.812 131.616 77.812C131.397 77.812 131.219 77.9899 131.219 78.2094V85.2182C131.219 85.4377 131.397 85.6156 131.616 85.6156C131.836 85.6156 132.014 85.4377 132.014 85.2182V78.2094Z" fill="white"/>
<path d="M150.742 81.3164H143.728C143.508 81.3164 143.33 81.4943 143.33 81.7138C143.33 81.9332 143.508 82.1111 143.728 82.1111H150.742C150.962 82.1111 151.14 81.9332 151.14 81.7138C151.14 81.4943 150.962 81.3164 150.742 81.3164Z" fill="white"/>
<path d="M147.633 78.2094C147.633 77.9899 147.455 77.812 147.235 77.812C147.016 77.812 146.837 77.9899 146.837 78.2094V85.2182C146.837 85.4377 147.016 85.6156 147.235 85.6156C147.455 85.6156 147.633 85.4377 147.633 85.2182V78.2094Z" fill="white"/>
<path d="M10.1724 96.9233H3.15832C2.93869 96.9233 2.76065 97.1013 2.76065 97.3207C2.76065 97.5402 2.93869 97.7181 3.15832 97.7181H10.1724C10.392 97.7181 10.5701 97.5402 10.5701 97.3207C10.5701 97.1013 10.392 96.9233 10.1724 96.9233Z" fill="white"/>
<path d="M7.06305 93.8163C7.06305 93.5969 6.88501 93.4189 6.66539 93.4189C6.44576 93.4189 6.26772 93.5969 6.26772 93.8163V100.825C6.26772 101.045 6.44576 101.223 6.66539 101.223C6.88501 101.223 7.06305 101.045 7.06305 100.825V93.8163Z" fill="white"/>
<path d="M25.7913 96.9233H18.7772C18.5576 96.9233 18.3795 97.1013 18.3795 97.3207C18.3795 97.5402 18.5576 97.7181 18.7772 97.7181H25.7913C26.0109 97.7181 26.189 97.5402 26.189 97.3207C26.189 97.1013 26.0109 96.9233 25.7913 96.9233Z" fill="white"/>
<path d="M22.6819 93.8163C22.6819 93.5969 22.5039 93.4189 22.2842 93.4189C22.0646 93.4189 21.8866 93.5969 21.8866 93.8163V100.825C21.8866 101.045 22.0646 101.223 22.2842 101.223C22.5039 101.223 22.6819 101.045 22.6819 100.825V93.8163Z" fill="white"/>
<path d="M41.4102 96.9233H34.396C34.1764 96.9233 33.9984 97.1013 33.9984 97.3207C33.9984 97.5402 34.1764 97.7181 34.396 97.7181H41.4102C41.6298 97.7181 41.8078 97.5402 41.8078 97.3207C41.8078 97.1013 41.6298 96.9233 41.4102 96.9233Z" fill="white"/>
<path d="M38.3008 93.8163C38.3008 93.5969 38.1227 93.4189 37.9031 93.4189C37.6835 93.4189 37.5054 93.5969 37.5054 93.8163V100.825C37.5054 101.045 37.6835 101.223 37.9031 101.223C38.1227 101.223 38.3008 101.045 38.3008 100.825V93.8163Z" fill="white"/>
<path d="M57.029 96.9233H50.0149C49.7953 96.9233 49.6173 97.1013 49.6173 97.3207C49.6173 97.5402 49.7953 97.7181 50.0149 97.7181H57.029C57.2487 97.7181 57.4267 97.5402 57.4267 97.3207C57.4267 97.1013 57.2487 96.9233 57.029 96.9233Z" fill="white"/>
<path d="M53.9196 93.8163C53.9196 93.5969 53.7416 93.4189 53.522 93.4189C53.3023 93.4189 53.1243 93.5969 53.1243 93.8163V100.825C53.1243 101.045 53.3023 101.223 53.522 101.223C53.7416 101.223 53.9196 101.045 53.9196 100.825V93.8163Z" fill="white"/>
<path d="M72.6479 96.9233H65.6338C65.4142 96.9233 65.2361 97.1013 65.2361 97.3207C65.2361 97.5402 65.4142 97.7181 65.6338 97.7181H72.6479C72.8675 97.7181 73.0455 97.5402 73.0455 97.3207C73.0455 97.1013 72.8675 96.9233 72.6479 96.9233Z" fill="white"/>
<path d="M69.5385 93.8163C69.5385 93.5969 69.3605 93.4189 69.1408 93.4189C68.9212 93.4189 68.7432 93.5969 68.7432 93.8163V100.825C68.7432 101.045 68.9212 101.223 69.1408 101.223C69.3605 101.223 69.5385 101.045 69.5385 100.825V93.8163Z" fill="white"/>
<path d="M88.2668 96.9233H81.2526C81.033 96.9233 80.855 97.1013 80.855 97.3207C80.855 97.5402 81.033 97.7181 81.2526 97.7181H88.2668C88.4864 97.7181 88.6644 97.5402 88.6644 97.3207C88.6644 97.1013 88.4864 96.9233 88.2668 96.9233Z" fill="white"/>
<path d="M85.1574 93.8163C85.1574 93.5969 84.9793 93.4189 84.7597 93.4189C84.5401 93.4189 84.362 93.5969 84.362 93.8163V100.825C84.362 101.045 84.5401 101.223 84.7597 101.223C84.9793 101.223 85.1574 101.045 85.1574 100.825V93.8163Z" fill="white"/>
<path d="M103.886 96.9233H96.8715C96.6519 96.9233 96.4738 97.1013 96.4738 97.3207C96.4738 97.5402 96.6519 97.7181 96.8715 97.7181H103.886C104.105 97.7181 104.283 97.5402 104.283 97.3207C104.283 97.1013 104.105 96.9233 103.886 96.9233Z" fill="white"/>
<path d="M100.776 93.8163C100.776 93.5969 100.598 93.4189 100.379 93.4189C100.159 93.4189 99.9809 93.5969 99.9809 93.8163V100.825C99.9809 101.045 100.159 101.223 100.379 101.223C100.598 101.223 100.776 101.045 100.776 100.825V93.8163Z" fill="white"/>
<path d="M119.504 96.9233H112.49C112.271 96.9233 112.093 97.1013 112.093 97.3207C112.093 97.5402 112.271 97.7181 112.49 97.7181H119.504C119.724 97.7181 119.902 97.5402 119.902 97.3207C119.902 97.1013 119.724 96.9233 119.504 96.9233Z" fill="white"/>
<path d="M116.395 93.8163C116.395 93.5969 116.217 93.4189 115.997 93.4189C115.778 93.4189 115.6 93.5969 115.6 93.8163V100.825C115.6 101.045 115.778 101.223 115.997 101.223C116.217 101.223 116.395 101.045 116.395 100.825V93.8163Z" fill="white"/>
<path d="M135.123 96.9233H128.109C127.89 96.9233 127.712 97.1013 127.712 97.3207C127.712 97.5402 127.89 97.7181 128.109 97.7181H135.123C135.343 97.7181 135.521 97.5402 135.521 97.3207C135.521 97.1013 135.343 96.9233 135.123 96.9233Z" fill="white"/>
<path d="M132.014 93.8163C132.014 93.5969 131.836 93.4189 131.616 93.4189C131.397 93.4189 131.219 93.5969 131.219 93.8163V100.825C131.219 101.045 131.397 101.223 131.616 101.223C131.836 101.223 132.014 101.045 132.014 100.825V93.8163Z" fill="white"/>
<path d="M150.742 96.9233H143.728C143.508 96.9233 143.33 97.1013 143.33 97.3207C143.33 97.5402 143.508 97.7181 143.728 97.7181H150.742C150.962 97.7181 151.14 97.5402 151.14 97.3207C151.14 97.1013 150.962 96.9233 150.742 96.9233Z" fill="white"/>
<path d="M147.633 93.8163C147.633 93.5969 147.455 93.4189 147.235 93.4189C147.016 93.4189 146.837 93.5969 146.837 93.8163V100.825C146.837 101.045 147.016 101.223 147.235 101.223C147.455 101.223 147.633 101.045 147.633 100.825V93.8163Z" fill="white"/>
<path d="M10.1724 112.531H3.15832C2.93869 112.531 2.76065 112.709 2.76065 112.928C2.76065 113.148 2.93869 113.325 3.15832 113.325H10.1724C10.392 113.325 10.5701 113.148 10.5701 112.928C10.5701 112.709 10.392 112.531 10.1724 112.531Z" fill="white"/>
<path d="M7.06305 109.424C7.06305 109.204 6.88501 109.026 6.66539 109.026C6.44576 109.026 6.26772 109.204 6.26772 109.424V116.433C6.26772 116.652 6.44576 116.83 6.66539 116.83C6.88501 116.83 7.06305 116.652 7.06305 116.433V109.424Z" fill="white"/>
<path d="M25.7913 112.531H18.7772C18.5576 112.531 18.3795 112.709 18.3795 112.928C18.3795 113.148 18.5576 113.325 18.7772 113.325H25.7913C26.0109 113.325 26.189 113.148 26.189 112.928C26.189 112.709 26.0109 112.531 25.7913 112.531Z" fill="white"/>
<path d="M22.6819 109.424C22.6819 109.204 22.5039 109.026 22.2842 109.026C22.0646 109.026 21.8866 109.204 21.8866 109.424V116.433C21.8866 116.652 22.0646 116.83 22.2842 116.83C22.5039 116.83 22.6819 116.652 22.6819 116.433V109.424Z" fill="white"/>
<path d="M41.4102 112.531H34.396C34.1764 112.531 33.9984 112.709 33.9984 112.928C33.9984 113.148 34.1764 113.325 34.396 113.325H41.4102C41.6298 113.325 41.8078 113.148 41.8078 112.928C41.8078 112.709 41.6298 112.531 41.4102 112.531Z" fill="white"/>
<path d="M38.3008 109.424C38.3008 109.204 38.1227 109.026 37.9031 109.026C37.6835 109.026 37.5054 109.204 37.5054 109.424V116.433C37.5054 116.652 37.6835 116.83 37.9031 116.83C38.1227 116.83 38.3008 116.652 38.3008 116.433V109.424Z" fill="white"/>
<path d="M57.029 112.531H50.0149C49.7953 112.531 49.6173 112.709 49.6173 112.928C49.6173 113.148 49.7953 113.325 50.0149 113.325H57.029C57.2487 113.325 57.4267 113.148 57.4267 112.928C57.4267 112.709 57.2487 112.531 57.029 112.531Z" fill="white"/>
<path d="M53.9196 109.424C53.9196 109.204 53.7416 109.026 53.522 109.026C53.3023 109.026 53.1243 109.204 53.1243 109.424V116.433C53.1243 116.652 53.3023 116.83 53.522 116.83C53.7416 116.83 53.9196 116.652 53.9196 116.433V109.424Z" fill="white"/>
<path d="M72.6479 112.531H65.6338C65.4142 112.531 65.2361 112.709 65.2361 112.928C65.2361 113.148 65.4142 113.325 65.6338 113.325H72.6479C72.8675 113.325 73.0455 113.148 73.0455 112.928C73.0455 112.709 72.8675 112.531 72.6479 112.531Z" fill="white"/>
<path d="M69.5385 109.424C69.5385 109.204 69.3605 109.026 69.1408 109.026C68.9212 109.026 68.7432 109.204 68.7432 109.424V116.433C68.7432 116.652 68.9212 116.83 69.1408 116.83C69.3605 116.83 69.5385 116.652 69.5385 116.433V109.424Z" fill="white"/>
<path d="M88.2668 112.531H81.2526C81.033 112.531 80.855 112.709 80.855 112.928C80.855 113.148 81.033 113.325 81.2526 113.325H88.2668C88.4864 113.325 88.6644 113.148 88.6644 112.928C88.6644 112.709 88.4864 112.531 88.2668 112.531Z" fill="white"/>
<path d="M85.1574 109.424C85.1574 109.204 84.9793 109.026 84.7597 109.026C84.5401 109.026 84.362 109.204 84.362 109.424V116.433C84.362 116.652 84.5401 116.83 84.7597 116.83C84.9793 116.83 85.1574 116.652 85.1574 116.433V109.424Z" fill="white"/>
<path d="M103.886 112.531H96.8715C96.6519 112.531 96.4738 112.709 96.4738 112.928C96.4738 113.148 96.6519 113.325 96.8715 113.325H103.886C104.105 113.325 104.283 113.148 104.283 112.928C104.283 112.709 104.105 112.531 103.886 112.531Z" fill="white"/>
<path d="M100.776 109.424C100.776 109.204 100.598 109.026 100.379 109.026C100.159 109.026 99.9809 109.204 99.9809 109.424V116.433C99.9809 116.652 100.159 116.83 100.379 116.83C100.598 116.83 100.776 116.652 100.776 116.433V109.424Z" fill="white"/>
<path d="M119.504 112.531H112.49C112.271 112.531 112.093 112.709 112.093 112.928C112.093 113.148 112.271 113.325 112.49 113.325H119.504C119.724 113.325 119.902 113.148 119.902 112.928C119.902 112.709 119.724 112.531 119.504 112.531Z" fill="white"/>
<path d="M116.395 109.424C116.395 109.204 116.217 109.026 115.997 109.026C115.778 109.026 115.6 109.204 115.6 109.424V116.433C115.6 116.652 115.778 116.83 115.997 116.83C116.217 116.83 116.395 116.652 116.395 116.433V109.424Z" fill="white"/>
<path d="M135.123 112.531H128.109C127.89 112.531 127.712 112.709 127.712 112.928C127.712 113.148 127.89 113.325 128.109 113.325H135.123C135.343 113.325 135.521 113.148 135.521 112.928C135.521 112.709 135.343 112.531 135.123 112.531Z" fill="white"/>
<path d="M132.014 109.424C132.014 109.204 131.836 109.026 131.616 109.026C131.397 109.026 131.219 109.204 131.219 109.424V116.433C131.219 116.652 131.397 116.83 131.616 116.83C131.836 116.83 132.014 116.652 132.014 116.433V109.424Z" fill="white"/>
<path d="M150.742 112.531H143.728C143.508 112.531 143.33 112.709 143.33 112.928C143.33 113.148 143.508 113.325 143.728 113.325H150.742C150.962 113.325 151.14 113.148 151.14 112.928C151.14 112.709 150.962 112.531 150.742 112.531Z" fill="white"/>
<path d="M147.633 109.424C147.633 109.204 147.455 109.026 147.235 109.026C147.016 109.026 146.837 109.204 146.837 109.424V116.433C146.837 116.652 147.016 116.83 147.235 116.83C147.455 116.83 147.633 116.652 147.633 116.433V109.424Z" fill="white"/>
<path d="M10.1724 128.138H3.15832C2.93869 128.138 2.76065 128.316 2.76065 128.535C2.76065 128.755 2.93869 128.932 3.15832 128.932H10.1724C10.392 128.932 10.5701 128.755 10.5701 128.535C10.5701 128.316 10.392 128.138 10.1724 128.138Z" fill="white"/>
<path d="M7.06305 125.031C7.06305 124.811 6.88501 124.633 6.66539 124.633C6.44576 124.633 6.26772 124.811 6.26772 125.031V132.04C6.26772 132.259 6.44576 132.437 6.66539 132.437C6.88501 132.437 7.06305 132.259 7.06305 132.04V125.031Z" fill="white"/>
<path d="M25.7913 128.138H18.7772C18.5576 128.138 18.3795 128.316 18.3795 128.535C18.3795 128.755 18.5576 128.932 18.7772 128.932H25.7913C26.0109 128.932 26.189 128.755 26.189 128.535C26.189 128.316 26.0109 128.138 25.7913 128.138Z" fill="white"/>
<path d="M22.6819 125.031C22.6819 124.811 22.5039 124.633 22.2842 124.633C22.0646 124.633 21.8866 124.811 21.8866 125.031V132.04C21.8866 132.259 22.0646 132.437 22.2842 132.437C22.5039 132.437 22.6819 132.259 22.6819 132.04V125.031Z" fill="white"/>
<path d="M41.4102 128.138H34.396C34.1764 128.138 33.9984 128.316 33.9984 128.535C33.9984 128.755 34.1764 128.932 34.396 128.932H41.4102C41.6298 128.932 41.8078 128.755 41.8078 128.535C41.8078 128.316 41.6298 128.138 41.4102 128.138Z" fill="white"/>
<path d="M38.3008 125.031C38.3008 124.811 38.1227 124.633 37.9031 124.633C37.6835 124.633 37.5054 124.811 37.5054 125.031V132.04C37.5054 132.259 37.6835 132.437 37.9031 132.437C38.1227 132.437 38.3008 132.259 38.3008 132.04V125.031Z" fill="white"/>
<path d="M57.029 128.138H50.0149C49.7953 128.138 49.6173 128.316 49.6173 128.535C49.6173 128.755 49.7953 128.932 50.0149 128.932H57.029C57.2487 128.932 57.4267 128.755 57.4267 128.535C57.4267 128.316 57.2487 128.138 57.029 128.138Z" fill="white"/>
<path d="M53.9196 125.031C53.9196 124.811 53.7416 124.633 53.522 124.633C53.3023 124.633 53.1243 124.811 53.1243 125.031V132.04C53.1243 132.259 53.3023 132.437 53.522 132.437C53.7416 132.437 53.9196 132.259 53.9196 132.04V125.031Z" fill="white"/>
<path d="M72.6479 128.138H65.6338C65.4142 128.138 65.2361 128.316 65.2361 128.535C65.2361 128.755 65.4142 128.932 65.6338 128.932H72.6479C72.8675 128.932 73.0455 128.755 73.0455 128.535C73.0455 128.316 72.8675 128.138 72.6479 128.138Z" fill="white"/>
<path d="M69.5385 125.031C69.5385 124.811 69.3605 124.633 69.1408 124.633C68.9212 124.633 68.7432 124.811 68.7432 125.031V132.04C68.7432 132.259 68.9212 132.437 69.1408 132.437C69.3605 132.437 69.5385 132.259 69.5385 132.04V125.031Z" fill="white"/>
<path d="M88.2668 128.138H81.2526C81.033 128.138 80.855 128.316 80.855 128.535C80.855 128.755 81.033 128.932 81.2526 128.932H88.2668C88.4864 128.932 88.6644 128.755 88.6644 128.535C88.6644 128.316 88.4864 128.138 88.2668 128.138Z" fill="white"/>
<path d="M85.1574 125.031C85.1574 124.811 84.9793 124.633 84.7597 124.633C84.5401 124.633 84.362 124.811 84.362 125.031V132.04C84.362 132.259 84.5401 132.437 84.7597 132.437C84.9793 132.437 85.1574 132.259 85.1574 132.04V125.031Z" fill="white"/>
<path d="M103.886 128.138H96.8715C96.6519 128.138 96.4738 128.316 96.4738 128.535C96.4738 128.755 96.6519 128.932 96.8715 128.932H103.886C104.105 128.932 104.283 128.755 104.283 128.535C104.283 128.316 104.105 128.138 103.886 128.138Z" fill="white"/>
<path d="M100.776 125.031C100.776 124.811 100.598 124.633 100.379 124.633C100.159 124.633 99.9809 124.811 99.9809 125.031V132.04C99.9809 132.259 100.159 132.437 100.379 132.437C100.598 132.437 100.776 132.259 100.776 132.04V125.031Z" fill="white"/>
<path d="M119.504 128.138H112.49C112.271 128.138 112.093 128.316 112.093 128.535C112.093 128.755 112.271 128.932 112.49 128.932H119.504C119.724 128.932 119.902 128.755 119.902 128.535C119.902 128.316 119.724 128.138 119.504 128.138Z" fill="white"/>
<path d="M116.395 125.031C116.395 124.811 116.217 124.633 115.997 124.633C115.778 124.633 115.6 124.811 115.6 125.031V132.04C115.6 132.259 115.778 132.437 115.997 132.437C116.217 132.437 116.395 132.259 116.395 132.04V125.031Z" fill="white"/>
<path d="M135.123 128.138H128.109C127.89 128.138 127.712 128.316 127.712 128.535C127.712 128.755 127.89 128.932 128.109 128.932H135.123C135.343 128.932 135.521 128.755 135.521 128.535C135.521 128.316 135.343 128.138 135.123 128.138Z" fill="white"/>
<path d="M132.014 125.031C132.014 124.811 131.836 124.633 131.616 124.633C131.397 124.633 131.219 124.811 131.219 125.031V132.04C131.219 132.259 131.397 132.437 131.616 132.437C131.836 132.437 132.014 132.259 132.014 132.04V125.031Z" fill="white"/>
<path d="M150.742 128.138H143.728C143.508 128.138 143.33 128.316 143.33 128.535C143.33 128.755 143.508 128.932 143.728 128.932H150.742C150.962 128.932 151.14 128.755 151.14 128.535C151.14 128.316 150.962 128.138 150.742 128.138Z" fill="white"/>
<path d="M147.633 125.031C147.633 124.811 147.455 124.633 147.235 124.633C147.016 124.633 146.837 124.811 146.837 125.031V132.04C146.837 132.259 147.016 132.437 147.235 132.437C147.455 132.437 147.633 132.259 147.633 132.04V125.031Z" fill="white"/>
<path d="M10.1724 143.745H3.15832C2.93869 143.745 2.76065 143.923 2.76065 144.142C2.76065 144.362 2.93869 144.54 3.15832 144.54H10.1724C10.392 144.54 10.5701 144.362 10.5701 144.142C10.5701 143.923 10.392 143.745 10.1724 143.745Z" fill="white"/>
<path d="M7.06305 140.638C7.06305 140.419 6.88501 140.241 6.66539 140.241C6.44576 140.241 6.26772 140.419 6.26772 140.638V147.647C6.26772 147.866 6.44576 148.044 6.66539 148.044C6.88501 148.044 7.06305 147.866 7.06305 147.647V140.638Z" fill="white"/>
<path d="M25.7913 143.745H18.7772C18.5576 143.745 18.3795 143.923 18.3795 144.142C18.3795 144.362 18.5576 144.54 18.7772 144.54H25.7913C26.0109 144.54 26.189 144.362 26.189 144.142C26.189 143.923 26.0109 143.745 25.7913 143.745Z" fill="white"/>
<path d="M22.6819 140.638C22.6819 140.419 22.5039 140.241 22.2842 140.241C22.0646 140.241 21.8866 140.419 21.8866 140.638V147.647C21.8866 147.866 22.0646 148.044 22.2842 148.044C22.5039 148.044 22.6819 147.866 22.6819 147.647V140.638Z" fill="white"/>
<path d="M41.4102 143.745H34.396C34.1764 143.745 33.9984 143.923 33.9984 144.142C33.9984 144.362 34.1764 144.54 34.396 144.54H41.4102C41.6298 144.54 41.8078 144.362 41.8078 144.142C41.8078 143.923 41.6298 143.745 41.4102 143.745Z" fill="white"/>
<path d="M38.3008 140.638C38.3008 140.419 38.1227 140.241 37.9031 140.241C37.6835 140.241 37.5054 140.419 37.5054 140.638V147.647C37.5054 147.866 37.6835 148.044 37.9031 148.044C38.1227 148.044 38.3008 147.866 38.3008 147.647V140.638Z" fill="white"/>
<path d="M57.029 143.745H50.0149C49.7953 143.745 49.6173 143.923 49.6173 144.142C49.6173 144.362 49.7953 144.54 50.0149 144.54H57.029C57.2487 144.54 57.4267 144.362 57.4267 144.142C57.4267 143.923 57.2487 143.745 57.029 143.745Z" fill="white"/>
<path d="M53.9196 140.638C53.9196 140.419 53.7416 140.241 53.522 140.241C53.3023 140.241 53.1243 140.419 53.1243 140.638V147.647C53.1243 147.866 53.3023 148.044 53.522 148.044C53.7416 148.044 53.9196 147.866 53.9196 147.647V140.638Z" fill="white"/>
<path d="M72.6479 143.745H65.6338C65.4142 143.745 65.2361 143.923 65.2361 144.142C65.2361 144.362 65.4142 144.54 65.6338 144.54H72.6479C72.8675 144.54 73.0455 144.362 73.0455 144.142C73.0455 143.923 72.8675 143.745 72.6479 143.745Z" fill="white"/>
<path d="M69.5385 140.638C69.5385 140.419 69.3605 140.241 69.1408 140.241C68.9212 140.241 68.7432 140.419 68.7432 140.638V147.647C68.7432 147.866 68.9212 148.044 69.1408 148.044C69.3605 148.044 69.5385 147.866 69.5385 147.647V140.638Z" fill="white"/>
<path d="M88.2668 143.745H81.2526C81.033 143.745 80.855 143.923 80.855 144.142C80.855 144.362 81.033 144.54 81.2526 144.54H88.2668C88.4864 144.54 88.6644 144.362 88.6644 144.142C88.6644 143.923 88.4864 143.745 88.2668 143.745Z" fill="white"/>
<path d="M85.1574 140.638C85.1574 140.419 84.9793 140.241 84.7597 140.241C84.5401 140.241 84.362 140.419 84.362 140.638V147.647C84.362 147.866 84.5401 148.044 84.7597 148.044C84.9793 148.044 85.1574 147.866 85.1574 147.647V140.638Z" fill="white"/>
<path d="M103.886 143.745H96.8715C96.6519 143.745 96.4738 143.923 96.4738 144.142C96.4738 144.362 96.6519 144.54 96.8715 144.54H103.886C104.105 144.54 104.283 144.362 104.283 144.142C104.283 143.923 104.105 143.745 103.886 143.745Z" fill="white"/>
<path d="M100.776 140.638C100.776 140.419 100.598 140.241 100.379 140.241C100.159 140.241 99.9809 140.419 99.9809 140.638V147.647C99.9809 147.866 100.159 148.044 100.379 148.044C100.598 148.044 100.776 147.866 100.776 147.647V140.638Z" fill="white"/>
<path d="M119.504 143.745H112.49C112.271 143.745 112.093 143.923 112.093 144.142C112.093 144.362 112.271 144.54 112.49 144.54H119.504C119.724 144.54 119.902 144.362 119.902 144.142C119.902 143.923 119.724 143.745 119.504 143.745Z" fill="white"/>
<path d="M116.395 140.638C116.395 140.419 116.217 140.241 115.997 140.241C115.778 140.241 115.6 140.419 115.6 140.638V147.647C115.6 147.866 115.778 148.044 115.997 148.044C116.217 148.044 116.395 147.866 116.395 147.647V140.638Z" fill="white"/>
<path d="M135.123 143.745H128.109C127.89 143.745 127.712 143.923 127.712 144.142C127.712 144.362 127.89 144.54 128.109 144.54H135.123C135.343 144.54 135.521 144.362 135.521 144.142C135.521 143.923 135.343 143.745 135.123 143.745Z" fill="white"/>
<path d="M132.014 140.638C132.014 140.419 131.836 140.241 131.616 140.241C131.397 140.241 131.219 140.419 131.219 140.638V147.647C131.219 147.866 131.397 148.044 131.616 148.044C131.836 148.044 132.014 147.866 132.014 147.647V140.638Z" fill="white"/>
<path d="M150.742 143.745H143.728C143.508 143.745 143.33 143.923 143.33 144.142C143.33 144.362 143.508 144.54 143.728 144.54H150.742C150.962 144.54 151.14 144.362 151.14 144.142C151.14 143.923 150.962 143.745 150.742 143.745Z" fill="white"/>
<path d="M147.633 140.638C147.633 140.419 147.455 140.241 147.235 140.241C147.016 140.241 146.837 140.419 146.837 140.638V147.647C146.837 147.866 147.016 148.044 147.235 148.044C147.455 148.044 147.633 147.866 147.633 147.647V140.638Z" fill="white"/>
<path d="M10.1724 159.352H3.15832C2.93869 159.352 2.76065 159.53 2.76065 159.749C2.76065 159.969 2.93869 160.147 3.15832 160.147H10.1724C10.392 160.147 10.5701 159.969 10.5701 159.749C10.5701 159.53 10.392 159.352 10.1724 159.352Z" fill="white"/>
<path d="M7.06305 156.245C7.06305 156.026 6.88501 155.848 6.66539 155.848C6.44576 155.848 6.26772 156.026 6.26772 156.245V163.254C6.26772 163.473 6.44576 163.651 6.66539 163.651C6.88501 163.651 7.06305 163.473 7.06305 163.254V156.245Z" fill="white"/>
<path d="M25.7913 159.352H18.7772C18.5576 159.352 18.3795 159.53 18.3795 159.749C18.3795 159.969 18.5576 160.147 18.7772 160.147H25.7913C26.0109 160.147 26.189 159.969 26.189 159.749C26.189 159.53 26.0109 159.352 25.7913 159.352Z" fill="white"/>
<path d="M22.6819 156.245C22.6819 156.026 22.5039 155.848 22.2842 155.848C22.0646 155.848 21.8866 156.026 21.8866 156.245V163.254C21.8866 163.473 22.0646 163.651 22.2842 163.651C22.5039 163.651 22.6819 163.473 22.6819 163.254V156.245Z" fill="white"/>
<path d="M41.4102 159.352H34.396C34.1764 159.352 33.9984 159.53 33.9984 159.749C33.9984 159.969 34.1764 160.147 34.396 160.147H41.4102C41.6298 160.147 41.8078 159.969 41.8078 159.749C41.8078 159.53 41.6298 159.352 41.4102 159.352Z" fill="white"/>
<path d="M38.3008 156.245C38.3008 156.026 38.1227 155.848 37.9031 155.848C37.6835 155.848 37.5054 156.026 37.5054 156.245V163.254C37.5054 163.473 37.6835 163.651 37.9031 163.651C38.1227 163.651 38.3008 163.473 38.3008 163.254V156.245Z" fill="white"/>
<path d="M57.029 159.352H50.0149C49.7953 159.352 49.6173 159.53 49.6173 159.749C49.6173 159.969 49.7953 160.147 50.0149 160.147H57.029C57.2487 160.147 57.4267 159.969 57.4267 159.749C57.4267 159.53 57.2487 159.352 57.029 159.352Z" fill="white"/>
<path d="M53.9196 156.245C53.9196 156.026 53.7416 155.848 53.522 155.848C53.3023 155.848 53.1243 156.026 53.1243 156.245V163.254C53.1243 163.473 53.3023 163.651 53.522 163.651C53.7416 163.651 53.9196 163.473 53.9196 163.254V156.245Z" fill="white"/>
<path d="M72.6479 159.352H65.6338C65.4142 159.352 65.2361 159.53 65.2361 159.749C65.2361 159.969 65.4142 160.147 65.6338 160.147H72.6479C72.8675 160.147 73.0455 159.969 73.0455 159.749C73.0455 159.53 72.8675 159.352 72.6479 159.352Z" fill="white"/>
<path d="M69.5385 156.245C69.5385 156.026 69.3605 155.848 69.1408 155.848C68.9212 155.848 68.7432 156.026 68.7432 156.245V163.254C68.7432 163.473 68.9212 163.651 69.1408 163.651C69.3605 163.651 69.5385 163.473 69.5385 163.254V156.245Z" fill="white"/>
<path d="M88.2668 159.352H81.2526C81.033 159.352 80.855 159.53 80.855 159.749C80.855 159.969 81.033 160.147 81.2526 160.147H88.2668C88.4864 160.147 88.6644 159.969 88.6644 159.749C88.6644 159.53 88.4864 159.352 88.2668 159.352Z" fill="white"/>
<path d="M85.1574 156.245C85.1574 156.026 84.9793 155.848 84.7597 155.848C84.5401 155.848 84.362 156.026 84.362 156.245V163.254C84.362 163.473 84.5401 163.651 84.7597 163.651C84.9793 163.651 85.1574 163.473 85.1574 163.254V156.245Z" fill="white"/>
<path d="M103.886 159.352H96.8715C96.6519 159.352 96.4738 159.53 96.4738 159.749C96.4738 159.969 96.6519 160.147 96.8715 160.147H103.886C104.105 160.147 104.283 159.969 104.283 159.749C104.283 159.53 104.105 159.352 103.886 159.352Z" fill="white"/>
<path d="M100.776 156.245C100.776 156.026 100.598 155.848 100.379 155.848C100.159 155.848 99.9809 156.026 99.9809 156.245V163.254C99.9809 163.473 100.159 163.651 100.379 163.651C100.598 163.651 100.776 163.473 100.776 163.254V156.245Z" fill="white"/>
<path d="M119.504 159.352H112.49C112.271 159.352 112.093 159.53 112.093 159.749C112.093 159.969 112.271 160.147 112.49 160.147H119.504C119.724 160.147 119.902 159.969 119.902 159.749C119.902 159.53 119.724 159.352 119.504 159.352Z" fill="white"/>
<path d="M116.395 156.245C116.395 156.026 116.217 155.848 115.997 155.848C115.778 155.848 115.6 156.026 115.6 156.245V163.254C115.6 163.473 115.778 163.651 115.997 163.651C116.217 163.651 116.395 163.473 116.395 163.254V156.245Z" fill="white"/>
<path d="M135.123 159.352H128.109C127.89 159.352 127.712 159.53 127.712 159.749C127.712 159.969 127.89 160.147 128.109 160.147H135.123C135.343 160.147 135.521 159.969 135.521 159.749C135.521 159.53 135.343 159.352 135.123 159.352Z" fill="white"/>
<path d="M132.014 156.245C132.014 156.026 131.836 155.848 131.616 155.848C131.397 155.848 131.219 156.026 131.219 156.245V163.254C131.219 163.473 131.397 163.651 131.616 163.651C131.836 163.651 132.014 163.473 132.014 163.254V156.245Z" fill="white"/>
<path d="M150.742 159.352H143.728C143.508 159.352 143.33 159.53 143.33 159.749C143.33 159.969 143.508 160.147 143.728 160.147H150.742C150.962 160.147 151.14 159.969 151.14 159.749C151.14 159.53 150.962 159.352 150.742 159.352Z" fill="white"/>
<path d="M147.633 156.245C147.633 156.026 147.455 155.848 147.235 155.848C147.016 155.848 146.837 156.026 146.837 156.245V163.254C146.837 163.473 147.016 163.651 147.235 163.651C147.455 163.651 147.633 163.473 147.633 163.254V156.245Z" fill="white"/>
<path d="M10.1724 174.959H3.15832C2.93869 174.959 2.76065 175.137 2.76065 175.357C2.76065 175.576 2.93869 175.754 3.15832 175.754H10.1724C10.392 175.754 10.5701 175.576 10.5701 175.357C10.5701 175.137 10.392 174.959 10.1724 174.959Z" fill="white"/>
<path d="M7.06305 171.852C7.06305 171.633 6.88501 171.455 6.66539 171.455C6.44576 171.455 6.26772 171.633 6.26772 171.852V178.861C6.26772 179.081 6.44576 179.259 6.66539 179.259C6.88501 179.259 7.06305 179.081 7.06305 178.861V171.852Z" fill="white"/>
<path d="M25.7913 174.959H18.7772C18.5576 174.959 18.3795 175.137 18.3795 175.357C18.3795 175.576 18.5576 175.754 18.7772 175.754H25.7913C26.0109 175.754 26.189 175.576 26.189 175.357C26.189 175.137 26.0109 174.959 25.7913 174.959Z" fill="white"/>
<path d="M22.6819 171.852C22.6819 171.633 22.5039 171.455 22.2842 171.455C22.0646 171.455 21.8866 171.633 21.8866 171.852V178.861C21.8866 179.081 22.0646 179.259 22.2842 179.259C22.5039 179.259 22.6819 179.081 22.6819 178.861V171.852Z" fill="white"/>
<path d="M41.4102 174.959H34.396C34.1764 174.959 33.9984 175.137 33.9984 175.357C33.9984 175.576 34.1764 175.754 34.396 175.754H41.4102C41.6298 175.754 41.8078 175.576 41.8078 175.357C41.8078 175.137 41.6298 174.959 41.4102 174.959Z" fill="white"/>
<path d="M38.3008 171.852C38.3008 171.633 38.1227 171.455 37.9031 171.455C37.6835 171.455 37.5054 171.633 37.5054 171.852V178.861C37.5054 179.081 37.6835 179.259 37.9031 179.259C38.1227 179.259 38.3008 179.081 38.3008 178.861V171.852Z" fill="white"/>
<path d="M57.029 174.959H50.0149C49.7953 174.959 49.6173 175.137 49.6173 175.357C49.6173 175.576 49.7953 175.754 50.0149 175.754H57.029C57.2487 175.754 57.4267 175.576 57.4267 175.357C57.4267 175.137 57.2487 174.959 57.029 174.959Z" fill="white"/>
<path d="M53.9196 171.852C53.9196 171.633 53.7416 171.455 53.522 171.455C53.3023 171.455 53.1243 171.633 53.1243 171.852V178.861C53.1243 179.081 53.3023 179.259 53.522 179.259C53.7416 179.259 53.9196 179.081 53.9196 178.861V171.852Z" fill="white"/>
<path d="M72.6479 174.959H65.6338C65.4142 174.959 65.2361 175.137 65.2361 175.357C65.2361 175.576 65.4142 175.754 65.6338 175.754H72.6479C72.8675 175.754 73.0455 175.576 73.0455 175.357C73.0455 175.137 72.8675 174.959 72.6479 174.959Z" fill="white"/>
<path d="M69.5385 171.852C69.5385 171.633 69.3605 171.455 69.1408 171.455C68.9212 171.455 68.7432 171.633 68.7432 171.852V178.861C68.7432 179.081 68.9212 179.259 69.1408 179.259C69.3605 179.259 69.5385 179.081 69.5385 178.861V171.852Z" fill="white"/>
<path d="M88.2668 174.959H81.2526C81.033 174.959 80.855 175.137 80.855 175.357C80.855 175.576 81.033 175.754 81.2526 175.754H88.2668C88.4864 175.754 88.6644 175.576 88.6644 175.357C88.6644 175.137 88.4864 174.959 88.2668 174.959Z" fill="white"/>
<path d="M85.1574 171.852C85.1574 171.633 84.9793 171.455 84.7597 171.455C84.5401 171.455 84.362 171.633 84.362 171.852V178.861C84.362 179.081 84.5401 179.259 84.7597 179.259C84.9793 179.259 85.1574 179.081 85.1574 178.861V171.852Z" fill="white"/>
<path d="M103.886 174.959H96.8715C96.6519 174.959 96.4738 175.137 96.4738 175.357C96.4738 175.576 96.6519 175.754 96.8715 175.754H103.886C104.105 175.754 104.283 175.576 104.283 175.357C104.283 175.137 104.105 174.959 103.886 174.959Z" fill="white"/>
<path d="M100.776 171.852C100.776 171.633 100.598 171.455 100.379 171.455C100.159 171.455 99.9809 171.633 99.9809 171.852V178.861C99.9809 179.081 100.159 179.259 100.379 179.259C100.598 179.259 100.776 179.081 100.776 178.861V171.852Z" fill="white"/>
<path d="M119.504 174.959H112.49C112.271 174.959 112.093 175.137 112.093 175.357C112.093 175.576 112.271 175.754 112.49 175.754H119.504C119.724 175.754 119.902 175.576 119.902 175.357C119.902 175.137 119.724 174.959 119.504 174.959Z" fill="white"/>
<path d="M116.395 171.852C116.395 171.633 116.217 171.455 115.997 171.455C115.778 171.455 115.6 171.633 115.6 171.852V178.861C115.6 179.081 115.778 179.259 115.997 179.259C116.217 179.259 116.395 179.081 116.395 178.861V171.852Z" fill="white"/>
<path d="M135.123 174.959H128.109C127.89 174.959 127.712 175.137 127.712 175.357C127.712 175.576 127.89 175.754 128.109 175.754H135.123C135.343 175.754 135.521 175.576 135.521 175.357C135.521 175.137 135.343 174.959 135.123 174.959Z" fill="white"/>
<path d="M132.014 171.852C132.014 171.633 131.836 171.455 131.616 171.455C131.397 171.455 131.219 171.633 131.219 171.852V178.861C131.219 179.081 131.397 179.259 131.616 179.259C131.836 179.259 132.014 179.081 132.014 178.861V171.852Z" fill="white"/>
<path d="M150.742 174.959H143.728C143.508 174.959 143.33 175.137 143.33 175.357C143.33 175.576 143.508 175.754 143.728 175.754H150.742C150.962 175.754 151.14 175.576 151.14 175.357C151.14 175.137 150.962 174.959 150.742 174.959Z" fill="white"/>
<path d="M147.633 171.852C147.633 171.633 147.455 171.455 147.235 171.455C147.016 171.455 146.837 171.633 146.837 171.852V178.861C146.837 179.081 147.016 179.259 147.235 179.259C147.455 179.259 147.633 179.081 147.633 178.861V171.852Z" fill="white"/>
<path d="M10.1724 190.566H3.15832C2.93869 190.566 2.76065 190.744 2.76065 190.964C2.76065 191.183 2.93869 191.361 3.15832 191.361H10.1724C10.392 191.361 10.5701 191.183 10.5701 190.964C10.5701 190.744 10.392 190.566 10.1724 190.566Z" fill="white"/>
<path d="M7.06305 187.459C7.06305 187.24 6.88501 187.062 6.66539 187.062C6.44576 187.062 6.26772 187.24 6.26772 187.459V194.468C6.26772 194.688 6.44576 194.866 6.66539 194.866C6.88501 194.866 7.06305 194.688 7.06305 194.468V187.459Z" fill="white"/>
<path d="M25.7913 190.566H18.7772C18.5576 190.566 18.3795 190.744 18.3795 190.964C18.3795 191.183 18.5576 191.361 18.7772 191.361H25.7913C26.0109 191.361 26.189 191.183 26.189 190.964C26.189 190.744 26.0109 190.566 25.7913 190.566Z" fill="white"/>
<path d="M22.6819 187.459C22.6819 187.24 22.5039 187.062 22.2842 187.062C22.0646 187.062 21.8866 187.24 21.8866 187.459V194.468C21.8866 194.688 22.0646 194.866 22.2842 194.866C22.5039 194.866 22.6819 194.688 22.6819 194.468V187.459Z" fill="white"/>
<path d="M41.4102 190.566H34.396C34.1764 190.566 33.9984 190.744 33.9984 190.964C33.9984 191.183 34.1764 191.361 34.396 191.361H41.4102C41.6298 191.361 41.8078 191.183 41.8078 190.964C41.8078 190.744 41.6298 190.566 41.4102 190.566Z" fill="white"/>
<path d="M38.3008 187.459C38.3008 187.24 38.1227 187.062 37.9031 187.062C37.6835 187.062 37.5054 187.24 37.5054 187.459V194.468C37.5054 194.688 37.6835 194.866 37.9031 194.866C38.1227 194.866 38.3008 194.688 38.3008 194.468V187.459Z" fill="white"/>
<path d="M57.029 190.566H50.0149C49.7953 190.566 49.6173 190.744 49.6173 190.964C49.6173 191.183 49.7953 191.361 50.0149 191.361H57.029C57.2487 191.361 57.4267 191.183 57.4267 190.964C57.4267 190.744 57.2487 190.566 57.029 190.566Z" fill="white"/>
<path d="M53.9196 187.459C53.9196 187.24 53.7416 187.062 53.522 187.062C53.3023 187.062 53.1243 187.24 53.1243 187.459V194.468C53.1243 194.688 53.3023 194.866 53.522 194.866C53.7416 194.866 53.9196 194.688 53.9196 194.468V187.459Z" fill="white"/>
<path d="M72.6479 190.566H65.6338C65.4142 190.566 65.2361 190.744 65.2361 190.964C65.2361 191.183 65.4142 191.361 65.6338 191.361H72.6479C72.8675 191.361 73.0455 191.183 73.0455 190.964C73.0455 190.744 72.8675 190.566 72.6479 190.566Z" fill="white"/>
<path d="M69.5385 187.459C69.5385 187.24 69.3605 187.062 69.1408 187.062C68.9212 187.062 68.7432 187.24 68.7432 187.459V194.468C68.7432 194.688 68.9212 194.866 69.1408 194.866C69.3605 194.866 69.5385 194.688 69.5385 194.468V187.459Z" fill="white"/>
<path d="M88.2668 190.566H81.2526C81.033 190.566 80.855 190.744 80.855 190.964C80.855 191.183 81.033 191.361 81.2526 191.361H88.2668C88.4864 191.361 88.6644 191.183 88.6644 190.964C88.6644 190.744 88.4864 190.566 88.2668 190.566Z" fill="white"/>
<path d="M85.1574 187.459C85.1574 187.24 84.9793 187.062 84.7597 187.062C84.5401 187.062 84.362 187.24 84.362 187.459V194.468C84.362 194.688 84.5401 194.866 84.7597 194.866C84.9793 194.866 85.1574 194.688 85.1574 194.468V187.459Z" fill="white"/>
<path d="M103.886 190.566H96.8715C96.6519 190.566 96.4738 190.744 96.4738 190.964C96.4738 191.183 96.6519 191.361 96.8715 191.361H103.886C104.105 191.361 104.283 191.183 104.283 190.964C104.283 190.744 104.105 190.566 103.886 190.566Z" fill="white"/>
<path d="M100.776 187.459C100.776 187.24 100.598 187.062 100.379 187.062C100.159 187.062 99.9809 187.24 99.9809 187.459V194.468C99.9809 194.688 100.159 194.866 100.379 194.866C100.598 194.866 100.776 194.688 100.776 194.468V187.459Z" fill="white"/>
<path d="M119.504 190.566H112.49C112.271 190.566 112.093 190.744 112.093 190.964C112.093 191.183 112.271 191.361 112.49 191.361H119.504C119.724 191.361 119.902 191.183 119.902 190.964C119.902 190.744 119.724 190.566 119.504 190.566Z" fill="white"/>
<path d="M116.395 187.459C116.395 187.24 116.217 187.062 115.997 187.062C115.778 187.062 115.6 187.24 115.6 187.459V194.468C115.6 194.688 115.778 194.866 115.997 194.866C116.217 194.866 116.395 194.688 116.395 194.468V187.459Z" fill="white"/>
<path d="M135.123 190.566H128.109C127.89 190.566 127.712 190.744 127.712 190.964C127.712 191.183 127.89 191.361 128.109 191.361H135.123C135.343 191.361 135.521 191.183 135.521 190.964C135.521 190.744 135.343 190.566 135.123 190.566Z" fill="white"/>
<path d="M132.014 187.459C132.014 187.24 131.836 187.062 131.616 187.062C131.397 187.062 131.219 187.24 131.219 187.459V194.468C131.219 194.688 131.397 194.866 131.616 194.866C131.836 194.866 132.014 194.688 132.014 194.468V187.459Z" fill="white"/>
<path d="M150.742 190.566H143.728C143.508 190.566 143.33 190.744 143.33 190.964C143.33 191.183 143.508 191.361 143.728 191.361H150.742C150.962 191.361 151.14 191.183 151.14 190.964C151.14 190.744 150.962 190.566 150.742 190.566Z" fill="white"/>
<path d="M147.633 187.459C147.633 187.24 147.455 187.062 147.235 187.062C147.016 187.062 146.837 187.24 146.837 187.459V194.468C146.837 194.688 147.016 194.866 147.235 194.866C147.455 194.866 147.633 194.688 147.633 194.468V187.459Z" fill="white"/>
</g>
<defs>
<clipPath id="clip0_2523_21544">
<rect width="154" height="269" fill="white"/>
</clipPath>
</defs>
</svg>
